<?xml version="1.0" encoding="UTF-8" standalone="no"?>
<svg
   xmlns:dc="http://purl.org/dc/elements/1.1/"
   xmlns:cc="http://creativecommons.org/ns#"
   xmlns:rdf="http://www.w3.org/1999/02/22-rdf-syntax-ns#"
   xmlns:svg="http://www.w3.org/2000/svg"
   xmlns="http://www.w3.org/2000/svg"
   xmlns:sodipodi="http://sodipodi.sourceforge.net/DTD/sodipodi-0.dtd"
   xmlns:inkscape="http://www.inkscape.org/namespaces/inkscape"
   aria-label="GitHub"
   role="img"
   viewBox="0 0 512 512"
   version="1.1"
   id="svg6"
   sodipodi:docname="github.svg"
   inkscape:version="1.0.2-2 (e86c870879, 2021-01-15)">
  <metadata
     id="metadata12">
    <rdf:RDF>
      <cc:Work
         rdf:about="">
        <dc:format>image/svg+xml</dc:format>
        <dc:type
           rdf:resource="http://purl.org/dc/dcmitype/StillImage" />
      </cc:Work>
    </rdf:RDF>
  </metadata>
  <defs
     id="defs10" />
  <sodipodi:namedview
     pagecolor="#ffffff"
     bordercolor="#666666"
     borderopacity="1"
     objecttolerance="10"
     gridtolerance="10"
     guidetolerance="10"
     inkscape:pageopacity="0"
     inkscape:pageshadow="2"
     inkscape:window-width="1920"
     inkscape:window-height="1057"
     id="namedview8"
     showgrid="false"
     inkscape:zoom="1.7382812"
     inkscape:cx="145.25843"
     inkscape:cy="256"
     inkscape:window-x="-8"
     inkscape:window-y="-8"
     inkscape:window-maximized="1"
     inkscape:current-layer="svg6" />
  <rect
     width="512"
     height="512"
     rx="15%"
     fill="#1B1817"
     id="rect2" />
  <path
     fill="#fff"
     d="M335 499c14 0 12 17 12 17H165s-2-17 12-17c13 0 16-6 16-12l-1-50c-71 16-86-28-86-28-12-30-28-37-28-37-24-16 1-16 1-16 26 2 40 26 40 26 22 39 59 28 74 22 2-17 9-28 16-35-57-6-116-28-116-126 0-28 10-51 26-69-3-6-11-32 3-67 0 0 21-7 70 26 42-12 86-12 128 0 49-33 70-26 70-26 14 35 6 61 3 67 16 18 26 41 26 69 0 98-60 120-117 126 10 8 18 24 18 48l-1 70c0 6 3 12 16 12z"
     id="path4" />
  <path
     style="fill:#23874b;stroke-width:0.575281;fill-opacity:1"
     d="M 71.334831,511.41352 C 52.544063,509.97243 35.805393,502.26804 22.660846,489.01007 11.281903,477.53295 4.4310289,464.29579 1.3617067,447.85618 0.32718601,442.31518 0.28764045,435.24072 0.28764045,255.71236 0.28764045,78.664865 0.33950208,69.051668 1.322212,63.941597 4.4654776,47.59669 11.639535,33.914511 22.942452,22.708029 34.469092,11.279734 47.678934,4.4357491 64.14382,1.3617067 69.684817,0.32718601 76.759282,0.28764045 256.28764,0.28764045 c 177.04749,0 186.66069,0.0518616 191.77076,1.03457155 32.75907,6.299848 56.80354,30.484238 62.65493,63.019528 0.93501,5.19894 0.99903,17.480031 0.99903,191.65826 0,175.69069 -0.0571,186.40916 -1.01952,191.56854 -6.15254,32.98078 -30.23664,57.2027 -62.73793,63.09693 -4.56728,0.82829 -11.67005,0.98776 -52.8595,1.18671 l -47.58324,0.22984 -0.33505,-1.62303 c -1.22398,-5.92913 -2.82691,-8.58877 -6.24789,-10.36675 -0.99063,-0.51486 -4.19347,-1.13963 -7.11744,-1.38839 -8.27425,-0.70394 -12.67516,-3.28234 -14.0106,-8.20854 -0.42294,-1.56013 -0.42684,-13.43195 -0.013,-39.40674 0.386,-24.22466 0.39785,-39.27812 0.034,-43.21441 -1.28994,-13.95631 -6.31162,-27.16367 -13.17127,-34.64136 -4.10398,-4.47375 -4.75885,-3.89114 6.01419,-5.35062 64.22433,-8.7008 98.26886,-41.42844 105.25928,-101.18772 4.37562,-37.40609 -1.85609,-63.89632 -20.7321,-88.12951 l -3.63139,-4.66201 1.418,-4.46531 c 2.47436,-7.79182 3.28913,-14.90463 2.96379,-25.87358 -0.34208,-11.5333 -1.64597,-18.9453 -5.21739,-29.65843 l -2.39726,-7.19101 -2.8764,-0.37541 c -3.96463,-0.51743 -12.18292,0.41586 -18.57928,2.1099 -11.6646,3.08932 -26.26419,9.86962 -40.6087,18.8594 -4.39339,2.75336 -8.31006,5.00611 -8.70371,5.00611 -0.39365,0 -3.78872,-0.76823 -7.54461,-1.70718 -19.08202,-4.77041 -34.46464,-6.57637 -56.01539,-6.57637 -21.5677,0 -36.82023,1.79373 -55.98599,6.58407 -3.73971,0.93471 -7.16092,1.69948 -7.60268,1.69948 -0.44176,0 -2.94784,-1.39191 -5.56906,-3.09312 -15.47996,-10.04673 -31.88339,-17.7922 -44.47828,-21.00202 -5.87054,-1.49612 -14.10234,-2.3649 -17.81568,-1.88027 l -2.8764,0.37541 -2.18029,6.32809 c -3.56957,10.36035 -5.04943,18.61477 -5.41557,30.20739 -0.35544,11.25404 0.43511,18.28386 2.945,26.18754 l 1.418,4.46531 -3.63139,4.66201 c -10.06175,12.91737 -16.666027,26.99124 -19.869744,42.34292 -3.799701,18.20751 -2.486473,46.28077 3.171645,67.80119 7.981559,30.35754 24.664629,51.59444 50.888189,64.77869 14.18483,7.13161 30.31159,11.78649 50.73279,14.64368 4.06923,0.56934 7.55804,1.1946 7.75291,1.38947 0.19487,0.19487 -0.60071,1.4114 -1.76796,2.7034 -6.0303,6.67483 -10.917,17.88813 -12.70516,29.15402 -0.36523,2.301 -0.53889,2.47886 -3.50318,3.58795 -9.23834,3.4565 -18.06836,4.87314 -27.97715,4.48851 -8.42244,-0.32694 -12.75911,-1.38591 -19.43589,-4.74605 -8.38536,-4.22 -14.38281,-9.9734 -21.08433,-20.22632 -7.3283,-11.21189 -14.11639,-18.01401 -22.851976,-22.89923 -9.975331,-5.57852 -22.256888,-7.29979 -28.617251,-4.01071 -4.96751,2.5688 -1.462559,8.33943 9.325649,15.35398 10.33854,6.72216 18.397023,17.28068 25.840478,33.85711 3.92426,8.73927 7.16199,13.47011 12.64138,18.47104 15.44583,14.09712 39.71364,18.73965 68.8471,13.17075 l 5.26933,-1.00724 0.34436,6.94488 c 0.18939,3.81968 0.40696,15.89181 0.48348,26.82695 l 0.13913,19.88207 -1.4382,2.13791 c -2.1587,3.20895 -6.1373,4.92682 -12.70421,5.48542 -8.64928,0.73573 -11.66647,3.1043 -13.2277,10.38408 L 164.435,512 120.6175,511.9163 c -24.099626,-0.046 -46.276826,-0.27229 -49.282669,-0.5028 z"
     id="path16" />
</svg>
